<mxfile modified="2023-10-16T08:40:23.795Z" host="app.diagrams.net" agent="5.0 (Macintosh; Intel Mac OS X 10_15_7) AppleWebKit/537.36 (KHTML, like Gecko) Chrome/117.0.0.0 Safari/537.36" etag="L8EJUkKaxUZLBkuGYFRd" version="20.4.1" type="github">
  <diagram id="Ht1M8jgEwFfnCIfOTk4-" name="Page-1">
    <mxGraphModel dx="2365" dy="1270" grid="1" gridSize="10" guides="1" tooltips="1" connect="1" arrows="1" fold="1" page="1" pageScale="1" pageWidth="1169" pageHeight="827" math="0" shadow="0">
      <root>
        <mxCell id="0" />
        <mxCell id="1" parent="0" />
        <mxCell id="omjO_fo85-VFDhPlKwED-74" value="" style="group" vertex="1" connectable="0" parent="1">
          <mxGeometry x="50" y="80" width="1150" height="780" as="geometry" />
        </mxCell>
        <mxCell id="UEzPUAAOIrF-is8g5C7q-74" value="AWS Cloud" style="points=[[0,0],[0.25,0],[0.5,0],[0.75,0],[1,0],[1,0.25],[1,0.5],[1,0.75],[1,1],[0.75,1],[0.5,1],[0.25,1],[0,1],[0,0.75],[0,0.5],[0,0.25]];outlineConnect=0;gradientColor=none;html=1;whiteSpace=wrap;fontSize=12;fontStyle=0;shape=mxgraph.aws4.group;grIcon=mxgraph.aws4.group_aws_cloud_alt;strokeColor=#232F3E;fillColor=none;verticalAlign=top;align=left;spacingLeft=30;fontColor=#232F3E;dashed=0;labelBackgroundColor=#ffffff;container=1;pointerEvents=0;collapsible=0;recursiveResize=0;" parent="omjO_fo85-VFDhPlKwED-74" vertex="1">
          <mxGeometry width="830" height="780" as="geometry" />
        </mxCell>
        <mxCell id="omjO_fo85-VFDhPlKwED-4" value="" style="outlineConnect=0;dashed=0;verticalLabelPosition=bottom;verticalAlign=top;align=center;html=1;shape=mxgraph.aws3.virtual_private_cloud;fillColor=#F58534;gradientColor=none;" vertex="1" parent="UEzPUAAOIrF-is8g5C7q-74">
          <mxGeometry x="23" y="50" width="44.17" height="30" as="geometry" />
        </mxCell>
        <mxCell id="omjO_fo85-VFDhPlKwED-2" value="" style="rounded=0;whiteSpace=wrap;html=1;fillColor=none;" vertex="1" parent="omjO_fo85-VFDhPlKwED-74">
          <mxGeometry x="890" width="260" height="780" as="geometry" />
        </mxCell>
        <mxCell id="UEzPUAAOIrF-is8g5C7q-107" value="" style="rounded=0;whiteSpace=wrap;html=1;labelBackgroundColor=none;fillColor=none;dashed=1;container=1;pointerEvents=0;collapsible=0;recursiveResize=0;fontStyle=0" parent="omjO_fo85-VFDhPlKwED-74" vertex="1">
          <mxGeometry x="23" y="51" width="750" height="609" as="geometry" />
        </mxCell>
        <mxCell id="omjO_fo85-VFDhPlKwED-45" value="" style="group" vertex="1" connectable="0" parent="UEzPUAAOIrF-is8g5C7q-107">
          <mxGeometry x="157" y="19" width="593" height="578" as="geometry" />
        </mxCell>
        <mxCell id="omjO_fo85-VFDhPlKwED-41" value="" style="rounded=1;arcSize=10;dashed=0;fillColor=none;gradientColor=none;strokeWidth=2;fontColor=#33FFFF;" vertex="1" parent="omjO_fo85-VFDhPlKwED-45">
          <mxGeometry x="-46" y="16.490727532097004" width="563" height="561.509272467903" as="geometry" />
        </mxCell>
        <mxCell id="omjO_fo85-VFDhPlKwED-42" value="" style="dashed=0;html=1;shape=mxgraph.aws3.permissions;fillColor=#D9A741;gradientColor=none;dashed=0;fontColor=#33FFFF;" vertex="1" parent="omjO_fo85-VFDhPlKwED-45">
          <mxGeometry x="-26" width="30" height="28.85877318116976" as="geometry" />
        </mxCell>
        <mxCell id="omjO_fo85-VFDhPlKwED-46" value="" style="group" vertex="1" connectable="0" parent="omjO_fo85-VFDhPlKwED-45">
          <mxGeometry x="-8" y="63.75" width="496" height="492.82" as="geometry" />
        </mxCell>
        <mxCell id="omjO_fo85-VFDhPlKwED-24" value="" style="sketch=0;points=[[0,0,0],[0.25,0,0],[0.5,0,0],[0.75,0,0],[1,0,0],[0,1,0],[0.25,1,0],[0.5,1,0],[0.75,1,0],[1,1,0],[0,0.25,0],[0,0.5,0],[0,0.75,0],[1,0.25,0],[1,0.5,0],[1,0.75,0]];outlineConnect=0;fontColor=#232F3E;gradientColor=#FF4F8B;gradientDirection=north;fillColor=#BC1356;strokeColor=#ffffff;dashed=0;verticalLabelPosition=bottom;verticalAlign=top;align=center;html=1;fontSize=12;fontStyle=0;aspect=fixed;shape=mxgraph.aws4.resourceIcon;resIcon=mxgraph.aws4.managed_workflows_for_apache_airflow;" vertex="1" parent="omjO_fo85-VFDhPlKwED-46">
          <mxGeometry width="35.86411889596603" height="35.86411889596603" as="geometry" />
        </mxCell>
        <mxCell id="omjO_fo85-VFDhPlKwED-40" value="" style="whiteSpace=wrap;html=1;aspect=fixed;fontColor=#33FFFF;fillColor=none;" vertex="1" parent="omjO_fo85-VFDhPlKwED-46">
          <mxGeometry width="412" height="412" as="geometry" />
        </mxCell>
        <mxCell id="omjO_fo85-VFDhPlKwED-19" value="" style="sketch=0;points=[[0,0,0],[0.25,0,0],[0.5,0,0],[0.75,0,0],[1,0,0],[0,1,0],[0.25,1,0],[0.5,1,0],[0.75,1,0],[1,1,0],[0,0.25,0],[0,0.5,0],[0,0.75,0],[1,0.25,0],[1,0.5,0],[1,0.75,0]];outlineConnect=0;fontColor=#232F3E;gradientColor=#945DF2;gradientDirection=north;fillColor=#5A30B5;strokeColor=#ffffff;dashed=0;verticalLabelPosition=bottom;verticalAlign=top;align=center;html=1;fontSize=12;fontStyle=0;aspect=fixed;shape=mxgraph.aws4.resourceIcon;resIcon=mxgraph.aws4.glue;" vertex="1" parent="omjO_fo85-VFDhPlKwED-46">
          <mxGeometry x="162.5754989384289" y="161.76000000000002" width="68.22929936305732" height="68.22929936305732" as="geometry" />
        </mxCell>
        <mxCell id="omjO_fo85-VFDhPlKwED-18" value="" style="outlineConnect=0;dashed=0;verticalLabelPosition=bottom;verticalAlign=top;align=center;html=1;shape=mxgraph.aws3.emr;fillColor=#F58534;gradientColor=none;fontColor=#33FFFF;" vertex="1" parent="omjO_fo85-VFDhPlKwED-46">
          <mxGeometry x="169.99567164179103" y="255.24788844621514" width="53.395522388059696" height="69.38247011952191" as="geometry" />
        </mxCell>
        <mxCell id="omjO_fo85-VFDhPlKwED-61" value="Airflow environment" style="text;html=1;strokeColor=none;fillColor=none;align=center;verticalAlign=middle;whiteSpace=wrap;rounded=0;fontColor=#000000;" vertex="1" parent="omjO_fo85-VFDhPlKwED-46">
          <mxGeometry x="37" y="2.25" width="132" height="30" as="geometry" />
        </mxCell>
        <mxCell id="UEzPUAAOIrF-is8g5C7q-98" value="Bucket" style="outlineConnect=0;fontColor=#232F3E;gradientColor=none;fillColor=#277116;strokeColor=none;dashed=0;verticalLabelPosition=bottom;verticalAlign=top;align=center;html=1;fontSize=12;fontStyle=0;aspect=fixed;pointerEvents=1;shape=mxgraph.aws4.bucket;labelBackgroundColor=#ffffff;" parent="omjO_fo85-VFDhPlKwED-45" vertex="1">
          <mxGeometry x="448.00054409481254" y="232.64274900398408" width="51.89656811483981" height="53.9724308394334" as="geometry" />
        </mxCell>
        <mxCell id="omjO_fo85-VFDhPlKwED-23" style="edgeStyle=orthogonalEdgeStyle;rounded=0;orthogonalLoop=1;jettySize=auto;html=1;fontColor=#33FFFF;" edge="1" parent="omjO_fo85-VFDhPlKwED-45" source="omjO_fo85-VFDhPlKwED-18" target="UEzPUAAOIrF-is8g5C7q-98">
          <mxGeometry relative="1" as="geometry" />
        </mxCell>
        <mxCell id="omjO_fo85-VFDhPlKwED-48" style="edgeStyle=orthogonalEdgeStyle;rounded=0;orthogonalLoop=1;jettySize=auto;html=1;fontColor=#33FFFF;" edge="1" parent="omjO_fo85-VFDhPlKwED-45" source="omjO_fo85-VFDhPlKwED-19" target="UEzPUAAOIrF-is8g5C7q-98">
          <mxGeometry relative="1" as="geometry" />
        </mxCell>
        <mxCell id="omjO_fo85-VFDhPlKwED-44" style="edgeStyle=orthogonalEdgeStyle;rounded=0;orthogonalLoop=1;jettySize=auto;html=1;entryX=0;entryY=0.5;entryDx=0;entryDy=0;entryPerimeter=0;fontColor=#33FFFF;" edge="1" parent="UEzPUAAOIrF-is8g5C7q-107" source="UEzPUAAOIrF-is8g5C7q-77" target="omjO_fo85-VFDhPlKwED-18">
          <mxGeometry relative="1" as="geometry" />
        </mxCell>
        <mxCell id="UEzPUAAOIrF-is8g5C7q-77" value="Bucket" style="outlineConnect=0;fontColor=#232F3E;gradientColor=none;fillColor=#277116;strokeColor=none;dashed=0;verticalLabelPosition=bottom;verticalAlign=top;align=center;html=1;fontSize=12;fontStyle=0;aspect=fixed;pointerEvents=1;shape=mxgraph.aws4.bucket_with_objects;labelBackgroundColor=#ffffff;" parent="UEzPUAAOIrF-is8g5C7q-107" vertex="1">
          <mxGeometry x="17.002238805970137" y="248.51274900398408" width="59.32835820895522" height="61.70149253731343" as="geometry" />
        </mxCell>
        <mxCell id="omjO_fo85-VFDhPlKwED-21" style="edgeStyle=orthogonalEdgeStyle;rounded=0;orthogonalLoop=1;jettySize=auto;html=1;entryX=0;entryY=0.5;entryDx=0;entryDy=0;entryPerimeter=0;fontColor=#33FFFF;fontStyle=0" edge="1" parent="UEzPUAAOIrF-is8g5C7q-107" source="UEzPUAAOIrF-is8g5C7q-77" target="omjO_fo85-VFDhPlKwED-19">
          <mxGeometry relative="1" as="geometry" />
        </mxCell>
        <mxCell id="UEzPUAAOIrF-is8g5C7q-80" value="Amazon&lt;br&gt;CloudWatch" style="outlineConnect=0;fontColor=#232F3E;gradientColor=#F34482;gradientDirection=north;fillColor=#BC1356;strokeColor=#ffffff;dashed=0;verticalLabelPosition=bottom;verticalAlign=top;align=center;html=1;fontSize=12;fontStyle=0;aspect=fixed;shape=mxgraph.aws4.resourceIcon;resIcon=mxgraph.aws4.cloudwatch;labelBackgroundColor=#ffffff;" parent="UEzPUAAOIrF-is8g5C7q-107" vertex="1">
          <mxGeometry x="167" y="619" width="58" height="58" as="geometry" />
        </mxCell>
        <mxCell id="UEzPUAAOIrF-is8g5C7q-79" value="AWS&lt;br&gt;CloudTrail" style="outlineConnect=0;fontColor=#232F3E;gradientColor=#F34482;gradientDirection=north;fillColor=#BC1356;strokeColor=#ffffff;dashed=0;verticalLabelPosition=bottom;verticalAlign=top;align=center;html=1;fontSize=12;fontStyle=0;aspect=fixed;shape=mxgraph.aws4.resourceIcon;resIcon=mxgraph.aws4.cloudtrail;labelBackgroundColor=#ffffff;" parent="UEzPUAAOIrF-is8g5C7q-107" vertex="1">
          <mxGeometry x="37" y="619" width="60" height="60" as="geometry" />
        </mxCell>
        <mxCell id="omjO_fo85-VFDhPlKwED-17" value="Amazon Simple&lt;br&gt;Notification Service&lt;br&gt;" style="outlineConnect=0;fontColor=#232F3E;gradientColor=#F34482;gradientDirection=north;fillColor=#BC1356;strokeColor=#ffffff;dashed=0;verticalLabelPosition=bottom;verticalAlign=top;align=center;html=1;fontSize=12;fontStyle=0;aspect=fixed;shape=mxgraph.aws4.resourceIcon;resIcon=mxgraph.aws4.sns;labelBackgroundColor=#ffffff;" vertex="1" parent="UEzPUAAOIrF-is8g5C7q-107">
          <mxGeometry x="300" y="619" width="55" height="55" as="geometry" />
        </mxCell>
        <mxCell id="UEzPUAAOIrF-is8g5C7q-82" value="Amazon Simple&lt;br&gt;Queue Service&lt;br&gt;" style="outlineConnect=0;fontColor=#232F3E;gradientColor=#F34482;gradientDirection=north;fillColor=#BC1356;strokeColor=#ffffff;dashed=0;verticalLabelPosition=bottom;verticalAlign=top;align=center;html=1;fontSize=12;fontStyle=0;aspect=fixed;shape=mxgraph.aws4.resourceIcon;resIcon=mxgraph.aws4.sqs;labelBackgroundColor=#ffffff;" parent="UEzPUAAOIrF-is8g5C7q-107" vertex="1">
          <mxGeometry x="427" y="619" width="61" height="61" as="geometry" />
        </mxCell>
        <mxCell id="omjO_fo85-VFDhPlKwED-49" value="&lt;font color=&quot;#000000&quot;&gt;Snowflake data warehosue&lt;/font&gt;" style="text;html=1;strokeColor=none;fillColor=none;align=center;verticalAlign=middle;whiteSpace=wrap;rounded=0;fontColor=#33FFFF;" vertex="1" parent="omjO_fo85-VFDhPlKwED-74">
          <mxGeometry x="940" width="160" height="30" as="geometry" />
        </mxCell>
        <mxCell id="omjO_fo85-VFDhPlKwED-60" style="edgeStyle=orthogonalEdgeStyle;rounded=0;orthogonalLoop=1;jettySize=auto;html=1;fontColor=#000000;" edge="1" parent="omjO_fo85-VFDhPlKwED-74" source="omjO_fo85-VFDhPlKwED-52" target="omjO_fo85-VFDhPlKwED-2">
          <mxGeometry relative="1" as="geometry" />
        </mxCell>
        <mxCell id="omjO_fo85-VFDhPlKwED-52" value="" style="outlineConnect=0;dashed=0;verticalLabelPosition=bottom;verticalAlign=top;align=center;html=1;shape=mxgraph.aws3.vpn_gateway;fillColor=#F58534;gradientColor=none;fontColor=#000000;" vertex="1" parent="omjO_fo85-VFDhPlKwED-74">
          <mxGeometry x="796" y="354" width="69" height="72" as="geometry" />
        </mxCell>
        <mxCell id="omjO_fo85-VFDhPlKwED-57" value="Snowflake tables" style="swimlane;fontColor=#000000;fillColor=none;" vertex="1" parent="omjO_fo85-VFDhPlKwED-74">
          <mxGeometry x="940" y="190" width="160" height="170" as="geometry" />
        </mxCell>
        <mxCell id="omjO_fo85-VFDhPlKwED-59" value="" style="shape=image;html=1;verticalAlign=top;verticalLabelPosition=bottom;labelBackgroundColor=#ffffff;imageAspect=0;aspect=fixed;image=https://cdn1.iconfinder.com/data/icons/line-christmas-icons/75/_snowflake-128.png;fontColor=#000000;fillColor=none;" vertex="1" parent="omjO_fo85-VFDhPlKwED-74">
          <mxGeometry x="890" width="40" height="40" as="geometry" />
        </mxCell>
      </root>
    </mxGraphModel>
  </diagram>
</mxfile>
